<?xml version="1.0" encoding="UTF-8"?>
<svg version="1.1" viewBox="0 0 4096 1373" width="325" height="109" xmlns="http://www.w3.org/2000/svg">
<path transform="translate(1403,113)" d="m0 0h57l21 2 7 3v11l-5 20-16 43-16 41-11 30-11 28-31 80-14 36-18 47-18 46-15 39-14 36-16 40-12 32-15 39-11 27-12 32-18 46-28 72-10 26-12 36-2 8-1 12 3 16 6 14 9 12 9 7 14 7 16 4h23l20-3 15-5 14-7 9-7 10-9 9-11 8-12 8-18 5-11 11-28 7-19 8-20 12-31 6-16 6-15 6-16 14-37 14-36 21-55 13-33 19-48 10-27 10-25 6-16 16-41 15-39 18-46 16-41 11-28 5-13 7-16 7-12 10-11 8-4 8-2 11-1h16l29 1 20 3 6 3v7l-7 24-14 38-10 26-16 42-17 44-17 45-14 36-11 28-9 23 12-3 19-7 19-5 22-4 16-2 15-1h25l24 2 25 4 22 6 25 10 24 12 12 8 16 12 10 8 13 12 10 11 13 17 12 18 12 21 7 13v2l18-5 36-9 21-7 28-11 17-8 19-11 19-12 19-14 17-16 7-7h2l2-4 10-10 7-8 12-10 10-5 10-3 12-1h39l21 2 12 3 4 2 1 2v9l-5 19-13 33-11 29-18 47-13 33-17 43-10 26-22 56-11 27-8 22-5 21-1 18 2 14 6 16 6 8 10 7 12 6 13 4 15 2 21-1 19-4 15-6 13-7 13-11 8-9 7-10 6-11 9-19 10-26 11-28 7-19 15-38 11-28 19-50 21-53 13-34 19-49 17-44 11-28 11-27 9-16 8-8 9-5 21-3h38l16 2 9 3 4 5 3 9 2 25 4 19 8 16 7 11 14 15 13 12 10 8 22 12 21 10 27 10 18 7 13 8 9 7 8 10 6 13 4 17-1 16-6 21-15 43-17 44-18 48-11 29-8 24-4 17v20l4 13 5 10 9 11 11 8 11 5 14 3 9 1h16l18-3 18-6 16-7 14-10 10-9 13-13 4-6v-9l-7-25-4-22-2-20v-20l3-32 5-27 11-35 11-27 12-23 22-33 13-17 14-15 21-21 8-7 16-13 19-13 20-12 21-11 19-8 21-7 23-6 21-4 20-2 25-1 35 2 25 4 22 6 26 10 25 13 17 12 12 9 9 7 6 5v2l4 2 12 13 13 18 7 12v2h2l2-6 10-27 8-20 11-28 15-39 21-53 15-39 13-34 13-33 10-26 18-47 12-29 7-14 9-11 8-5 12-3h54l15 2 8 3 3 4v7l-4 15-9 26-19 48-14 36-12 31-18 47-19 48-19 49-8 21-12 30-22 56-16 41-13 34-12 30-11 27-15 39-13 33-10 27-8 26-2 11v15l3 13 5 12 7 10 6 5 16 8 13 4 11 2h20l17-3 16-5 17-9 13-11 10-11 10-15 8-16 13-34 6-16 16-41 14-37 20-52 11-29 13-33 15-38 16-40 8-18 16-30 6-9 7-11 13-17 4-5h2l2-4 15-15 12-9 15-9 17-8 18-5 22-3h13l24 3 16 5 13 8 6 7-1 10-7 17-7 18-8 16-7 6-23 3-13 5-12 8-9 8-6 10-6 18-2 17 1 15 5 24 8 24 11 26 16 33 17 32 10 19 9 17 8 17 10 19 9 19 8 16 10 23 10 28 8 25 9 36 5 35 1 10v42l-5 46-5 23-7 25-6 18-8 19-13 23-10 15-12 17-11 13-9 10-11 10-17 13-14 10-18 11-19 10-24 9-26 8-1 2h-43l-2-4-17-13-8-9-4-8-3-13v-8l3-15 5-10 9-11 11-7 10-4 29-7 16-6 25-12 12-8 11-9 15-15 11-15 8-14 8-17 8-27 5-26 2-15v-46l-3-23-5-22-7-25-13-33-10-22-18-36-9-17-23-46-11-23-12-24-6-14-1-3-3 1-11 24-15 40-16 41-14 37-28 70-13 26-9 14-9 12-13 15-16 16-10 8-21 14-19 10-21 8-25 6-23 4-10 1h-22l-24-3-21-5-19-7-16-8-16-10-10-9-8-7-15-15-8-11-4-6-6 1-5 5-10 9-29 19-22 12-26 12-30 10-26 6-27 4-25 2h-25l-27-3-29-7-21-7-18-8-16-8-13-8-14-10-11-9-9-6-5 1-7 6-5 5-14 11-13 9-27 14-27 10-25 6-26 4-11 1h-10l-21-2-22-4-18-6-22-10-13-8-12-9-16-15-12-14-12-19-9-19-6-19-4-20-1-9v-22l3-24 6-25 9-26 10-25 18-49 11-31 6-14 5-14 1-7-6-2-46-23-16-10-26-20-10-9-10-10-7-8-5-4-4 9-9 27-14 35-30 78-22 56-14 36-11 29-10 25-9 24-13 29-11 22-7 11-13 19-9 10-5 6-22 18-14 9-22 12-23 9-21 6-24 4-24 2-21-1-20-3-19-5-15-6-16-8-15-9-11-9-10-9-9-9-10-13-8-13-12-25-6-21-3-18v-30l3-22 6-23 7-21 17-43 15-39 6-17 5-13-10 4-23 11-33 11-28 8-51 11-3 2-1 3-2 26-4 23-9 32-11 26-7 16-14 24-12 18-10 13-13 16-9 10-7 8-14 12-10 8-9 7-14 10-17 11-26 14-21 9-33 11-24 6-35 5-17 1h-19l-24-2-27-5-15-4-16-6-29-14-18-10-12-9-14-12-16-15-10-11-13-18-5-7-3-1-10 19-10 13-12 14-18 18-17 13-15 10-19 9-27 9-17 4-29 4h-32l-25-4-19-5-24-11-16-9-10-8-24-22v-2l-11 9-15 13-15 10-25 12-20 7-17 5-26 4-10 1h-32l-25-4-19-5-21-9-18-10-10-8-11-10-7-8-9-6v2l-9 7-20 15-14 9-21 11-25 9-17 4-27 4h-35l-20-3-25-6-24-11-17-10-10-8-10-9-12-12-10-13-5-7-7 1-5 5-17 12-15 10-17 10-22 11-26 11-18 6-25 6-26 4-19 2h-34l-30-4-24-5-18-6-19-8-19-10-14-8-13-10-15-13-10-9-12-13-13-17-8-11-12-21-10-24-7-21-5-22-3-27v-36l3-27 5-25 8-27 8-20 8-17 11-20 12-19 10-14 10-13 9-11 24-24 22-18 14-10 20-13 23-13 27-12 27-9 27-6 20-3 26-2h15l30 2 26 4 21 6 18 7 23 11 14 8 20 14 11 9 10 9 13 13 10 13 8 12 5 4 3-10 5-16 7-18 8-21 6-11 9-11 13-8 4-1h60l11 1 9 4 3 4-1 12-4 14-10 28-11 28-22 58-17 43-32 82-11 28-10 25-10 30-5 21v21l4 13 6 11 9 10 14 8 17 5 15 2 18-1 20-4 20-8 11-7 13-12 10-12 8-13 10-21 8-21 9-24 13-34 12-30 13-35 12-31 14-36 11-29 18-46 16-42 33-84 14-35 6-17 13-33 15-39 11-29 30-76 6-13 7-12 9-10 9-4 6-1h57l20 2 6 2v9l-8 27-11 29-14 38-11 27-35 91-29 75-14 36-11 27-11 30-10 26-18 46-9 24-17 43-12 32-18 46-13 36-8 25-4 17-1 16 3 14 7 14 8 10 14 9 13 5 15 3h21l17-3 15-5 16-8 9-7 10-9 9-11 9-14 10-21 7-19 10-25 15-40 18-45 6-17 11-29 21-53 15-39 17-44 11-27 14-37 17-44 13-33 15-39 13-34 14-35 6-16 14-37 8-20 13-34 6-16 11-28 15-39 11-27 10-21 8-10 9-6zm-1016 532-27 2-20 4-21 7-17 8-16 9-12 8-13 10-13 11-15 15-9 12-12 17-9 15-10 21-6 17-6 23-3 20v36l3 18 6 21 6 14 10 16 9 11 9 10 13 10 17 10 18 8 17 5 19 3h26l28-4 21-6 19-7 20-11 21-14 13-10 10-9 10-10 7-8 13-17 9-15 8-15 7-16 8-25 5-25 1-8v-26l-3-24-4-16-9-20-8-15-9-12-5-6h-2l-2-4h-2v-2l-11-9-11-7-16-8-15-6-19-4-7-1zm1324 0-22 2-23 5-12 4-24 11-22 13-16 12-13 11-9 10-9 11-11 13-9 15-12 23-6 15-10 31-3 17-1 8v31l4 24 6 18 10 21 10 15 9 11 11 9 21 14 18 8 16 5 14 3 8 1h26l26-4 24-6 19-8 17-9 20-14 15-11 12-11 7-7 9-11 10-13 8-12 8-16 9-19 6-18 5-21 2-14v-42l-5-25-6-18-9-17-8-12-11-13-8-8-16-11-21-11-15-5-22-4-14-1zm1502 1-18 2-23 5-18 6-22 11-16 10-12 9-10 9-8 7-13 13-9 11-11 15-7 11-12 22-7 16-5 16-4 16-3 21v31l3 19 6 21 5 12 10 18 10 13 11 11 19 14 19 10 21 7 22 4h29l26-4 19-5 21-8 21-12 18-12 14-11 13-12 13-14 10-13 11-17 15-30 7-22 5-20 2-14v-38l-4-25-6-18-10-21-10-15-14-15-13-10-17-10-15-6-13-4-17-3-8-1z"/>
<path transform="translate(2316,318)" d="m0 0h22l16 4 10 5 9 7 9 10 7 12 3 10v23l-4 12-10 18-12 13-5 4-16 9-15 6-21 4h-15l-16-4-14-7-7-6-9-12-5-10-2-7-1-8v-10l4-17 6-12 8-12 9-10 15-10 15-7 13-4z"/>
<path transform="translate(3759,1371)" d="m0 0 1 2-2-1z"/>
</svg>
